<svg width="117" height="116" viewBox="0 0 117 116" fill="none" xmlns="http://www.w3.org/2000/svg">
<path d="M36.3742 111.444C19.4776 118.223 0.0302592 115.551 4.81503e-05 102.79C-0.00858359 98.5382 1.14375 95.8748 3.10747 93.9735C9.52085 87.7732 24.6048 89.6872 36.3742 71.266V111.448V111.444Z" fill="black"/>
<path d="M22.4762 41.7491H53.6022C29.0493 45.6072 40.3655 84.8734 0.538637 85.7169C0.538637 61.9217 -3.12122 41.7491 22.4762 41.7491V41.7491Z" fill="black"/>
<path d="M4.19447 36.0889C-2.63755 19.3248 0.055554 0.0300219 12.9168 4.77727e-05C17.2025 -0.00851627 19.887 1.13478 21.8032 3.0831C28.0526 9.44618 26.1234 24.4118 44.6903 36.0889H4.19447Z" fill="black"/>
<path d="M74.4479 22.3007V53.1826C70.5593 28.8222 30.9828 40.0497 30.1326 0.535203C54.1159 0.535203 74.4479 -3.09595 74.4479 22.3007Z" fill="black"/>
<path d="M80.1462 4.16508C97.0429 -2.61336 116.494 0.0586258 116.52 12.819C116.529 17.0711 115.377 19.7345 113.413 21.6357C107 27.8361 91.9156 25.922 80.1462 44.3433V4.16508Z" fill="black"/>
<path d="M94.0423 73.8628H62.9163C87.4692 70.0047 76.153 30.7386 115.98 29.895C115.98 53.6902 119.64 73.8628 94.0423 73.8628V73.8628Z" fill="black"/>
<path d="M112.324 79.5187C119.156 96.2828 116.463 115.582 103.602 115.608C99.3161 115.616 96.6317 114.473 94.7154 112.524C88.466 106.161 90.3952 91.1957 71.8284 79.5187H112.328H112.324Z" fill="black"/>
<path d="M42.0747 93.3025V62.4205C45.9633 86.7809 85.5398 75.5535 86.3901 115.068C62.4068 115.068 42.0747 118.699 42.0747 93.3025V93.3025Z" fill="black"/>
</svg>
